<svg width="124" height="79" viewBox="0 0 124 79" fill="none" xmlns="http://www.w3.org/2000/svg">
<g clip-path="url(#clip0_6_51)">
<path d="M55.3898 53.7902L28.1748 56.8618V71.2373L62.2705 66.1101V62.0838H76.5845L115.749 53.1566V45.9072L55.8199 48.8141L55.3898 53.7902Z" fill="#808080" stroke="#808080" stroke-width="0.931754" stroke-linecap="round" stroke-linejoin="round"/>
<path d="M50.9116 78.1614C55.9919 78.1614 60.1103 73.9814 60.1103 68.8251C60.1103 63.6688 55.9919 59.4888 50.9116 59.4888C45.8313 59.4888 41.7129 63.6688 41.7129 68.8251C41.7129 73.9814 45.8313 78.1614 50.9116 78.1614Z" fill="#E6E6E6" stroke="#808080" stroke-width="0.931754" stroke-linecap="round" stroke-linejoin="round"/>
<path d="M50.5679 74.2338C53.5108 74.2338 55.8966 71.8124 55.8966 68.8254C55.8966 65.8384 53.5108 63.417 50.5679 63.417C47.625 63.417 45.2392 65.8384 45.2392 68.8254C45.2392 71.8124 47.625 74.2338 50.5679 74.2338Z" fill="#E6E6E6" stroke="#808080" stroke-width="0.931754" stroke-linecap="round" stroke-linejoin="round"/>
<path d="M63.5991 2.70703L123.52 19.1677V48.3299L63.5991 55.0218V2.70703Z" fill="#F3F3F3" stroke="#808080" stroke-width="0.931754" stroke-linecap="round" stroke-linejoin="round"/>
<path d="M63.5994 2.70703L34.7151 8.99584L33.3428 52.3762L63.5994 55.0218V2.70703Z" fill="#F3F3F3" stroke="#808080" stroke-width="0.931754" stroke-linecap="round" stroke-linejoin="round"/>
<path d="M33.0215 60.6757L33.44 72.396C29.5839 72.6882 26.8044 72.5378 19.6342 71.129L1.93994 66.1484L1.64344 62.6502L3.5249 63.1332L3.77915 59.5483L1.38916 58.0482C1.43737 56.9555 1.54225 56.4007 2.50782 55.9887C2.16651 55.4188 1.38916 42.0801 2.50782 40.9401L7.32157 23.1565C7.79054 22.201 7.94475 21.6268 9.30887 20.9868C14.2075 18.6887 35.8652 14.4499 53.7356 17.5236C57.1067 19.4042 57.477 45.5618 56.8267 48.6817L42.6958 58.9333L33.0215 60.6757Z" fill="#E6E6E6"/>
<path d="M33.0215 60.6757H31.847L30.9631 59.8523L30.7969 57.8677L24.1868 58.3398L11.2281 58.8072L2.50782 55.9887M33.0215 60.6757L33.44 72.396C29.5839 72.6882 26.8044 72.5378 19.6342 71.129L1.93994 66.1484L1.64344 62.6502L3.5249 63.1332L3.77915 59.5483L1.38916 58.0482C1.43737 56.9555 1.54225 56.4007 2.50782 55.9887M33.0215 60.6757L42.6958 58.9333L56.8267 48.6817C57.477 45.5618 57.1067 19.4042 53.7356 17.5236C35.8652 14.4499 14.2075 18.6887 9.30887 20.9868C7.94475 21.6268 7.79054 22.201 7.32157 23.1565L2.50782 40.9401C1.38916 42.0801 2.16651 55.4188 2.50782 55.9887" stroke="#808080" stroke-width="0.931754" stroke-linecap="round" stroke-linejoin="round"/>
<path d="M30.7969 57.8677L24.1868 58.3399L11.2281 58.8073L2.50782 55.9888C1.54225 56.4008 1.43737 56.9556 1.38916 58.0482L3.77915 59.5483L3.5249 63.1333L1.64344 62.6502L1.93994 66.1485L19.6342 71.129C26.8044 72.5379 29.5839 72.6883 33.44 72.396L33.0215 60.6757H31.847L30.9631 59.8524L30.7969 57.8677Z" fill="#ACACAC"/>
<path d="M33.0215 60.6757H31.847L30.9631 59.8524L30.7969 57.8677L24.1868 58.3399L11.2281 58.8073L2.50782 55.9888C1.54225 56.4008 1.43737 56.9556 1.38916 58.0482L3.77915 59.5483L3.5249 63.1333L1.64344 62.6502L1.93994 66.1485L19.6342 71.129C26.8044 72.5379 29.5839 72.6883 33.44 72.396L33.0215 60.6757ZM33.0215 60.6757L42.6958 58.9334" stroke="#808080" stroke-width="0.931754" stroke-linecap="round" stroke-linejoin="round"/>
<path d="M7.32155 23.1565L2.50781 40.9402C13.5103 41.457 22.6445 41.7079 30.4854 40.4582C30.838 32.4664 30.9097 27.966 33.0413 20.262C29.7949 18.9853 9.30886 22.1108 7.32155 23.1565Z" fill="#D2D2D2" stroke="#808080" stroke-width="0.931754" stroke-linecap="round" stroke-linejoin="round"/>
<path d="M50.3588 36.0143V22.0665L34.9528 21.7812L33.8115 39.5012L50.3588 36.0143Z" fill="#D2D2D2" stroke="#808080" stroke-width="0.931754" stroke-linecap="round" stroke-linejoin="round"/>
<path d="M62.0862 66.1381C62.0862 66.1381 59.3004 53.9363 52.6254 55.7559C46.6067 57.3967 45.2008 61.3015 44.1146 70.5503C43.4386 71.698 42.3268 72.0854 38.8214 72.2441L31.0405 72.4294V70.2592H41.3621C41.2828 57.1851 44.9504 47.8578 58.0884 48.6367V50.6746L56.6858 54.1152L61.8466 58.9319H64.8769V60.3011L104.736 54.4406V54.0391L115.734 52.4501L118.344 53.1294V56.1683L120.883 56.4543V57.8129L117.844 57.5984L111.158 58.2419L108.155 56.7403L64.4821 64.7867V66.1381H62.0862Z" fill="#ACACAC" stroke="#808080" stroke-width="0.931754" stroke-linecap="round" stroke-linejoin="round"/>
<path d="M97.7363 57.6783C97.7363 61.2844 99.3035 64.2078 101.237 64.2078H107.203C109.121 64.1762 110.672 61.2651 110.672 57.6786C110.672 54.0725 109.104 51.1492 107.171 51.1492H101.268L101.237 51.1489C99.3035 51.1489 97.7363 54.0722 97.7363 57.6783Z" fill="#E6E6E6"/>
<path d="M107.171 64.208C107.182 64.208 107.192 64.2079 107.203 64.2078M107.203 64.2078C109.121 64.1762 110.672 61.2651 110.672 57.6786C110.672 54.0725 109.104 51.1492 107.171 51.1492H101.268C101.258 51.149 101.247 51.1489 101.237 51.1489C99.3035 51.1489 97.7363 54.0722 97.7363 57.6783C97.7363 61.2844 99.3035 64.2078 101.237 64.2078H107.203Z" stroke="#808080" stroke-width="0.931754" stroke-linecap="round" stroke-linejoin="round"/>
<path d="M107.04 62.1519C108.16 62.1519 109.068 60.3549 109.068 58.1382C109.068 55.9215 108.16 54.1245 107.04 54.1245C105.92 54.1245 105.012 55.9215 105.012 58.1382C105.012 60.3549 105.92 62.1519 107.04 62.1519Z" fill="#E6E6E6" stroke="#808080" stroke-width="0.931754" stroke-linecap="round" stroke-linejoin="round"/>
<path d="M107.777 52.539C105.056 53.2331 104.472 58.9252 104.472 58.9252H96.5634C96.5634 58.9252 96.2024 55.3811 97.1711 53.468C99.1367 49.5859 103.066 50.1528 107.777 50.0513C112.358 49.9525 111.898 57.4401 111.898 57.4401L111.007 57.7371C111.007 57.7371 111.415 51.6107 107.777 52.539Z" fill="#ACACAC" stroke="#808080" stroke-width="0.931754" stroke-linecap="round" stroke-linejoin="round"/>
<path d="M54.042 12.4392L54.1787 17.6185L12.3037 19.8857C15.1421 12.1414 19.757 9.08032 31.4339 5.29519C43.1108 1.51006 51.4405 0.546387 51.4405 0.546387L54.042 12.4392Z" fill="#E6E6E6"/>
<path d="M54.042 12.4392L54.1787 17.6185L12.3037 19.8857M54.042 12.4392L12.3037 19.8857M54.042 12.4392L51.4405 0.546387C51.4405 0.546387 43.1108 1.51006 31.4339 5.29519C19.757 9.08032 15.1421 12.1414 12.3037 19.8857" stroke="#808080" stroke-width="0.931754" stroke-linecap="round" stroke-linejoin="round"/>
<path d="M24.2745 49.4977L2.52246 48.0269L3.23558 57.1645L11.2589 60.1064H23.5614L24.2745 49.4977Z" fill="#D2D2D2" stroke="#808080" stroke-width="0.931754" stroke-linecap="round" stroke-linejoin="round"/>
</g>
<defs>
<clipPath id="clip0_6_51">
<rect width="124" height="79" fill="white"/>
</clipPath>
</defs>
</svg>
