<svg width="136" height="71" viewBox="0 0 136 71" fill="none" xmlns="http://www.w3.org/2000/svg">
<g clip-path="url(#clip0_5_2)">
<path d="M40.378 66.4108C39.9674 66.5166 39.5232 66.5577 39.0693 66.5577L40.378 66.4108C41.7171 66.0662 42.6995 65.0355 42.4977 62.5102C42.4977 62.5102 42.4977 49.8177 48.4313 49.5318C52.4488 49.3383 53.5299 52.5674 53.5299 52.5674H61.6172L132.954 51.9268V54.5518L111.787 56.4268V58.3955L40.378 66.4108Z" fill="#808080"/>
<path d="M39.0693 66.5577C41.0033 66.5577 42.7614 65.8098 42.4977 62.5102C42.4977 62.5102 42.4977 49.8177 48.4313 49.5318C52.4488 49.3383 53.5299 52.5674 53.5299 52.5674H61.6172L132.954 51.9268V54.5518L111.787 56.4268V58.3955L39.0693 66.5577Z" stroke="#808080" stroke-width="0.6" stroke-linecap="round" stroke-linejoin="round"/>
<path d="M62.6284 0.537598L99.094 11.945L135.56 23.3524V51.9606L99.094 52.2748L62.6284 52.589V0.537598Z" fill="#EDEDED"/>
<path d="M99.094 11.945L62.6284 0.537598V52.589L99.094 52.2748M99.094 11.945L135.56 23.3524V51.9606L99.094 52.2748M99.094 11.945V52.2748" stroke="#808080" stroke-width="0.6" stroke-linecap="round" stroke-linejoin="round"/>
<path d="M62.6284 0.537598L99.094 11.945L135.56 23.3524V48.4617V51.9606L99.094 52.2748L62.6284 52.589V45.9287V0.537598Z" fill="#FBFBFB"/>
<path d="M135.56 48.4617V23.3524L99.094 11.945L62.6284 0.537598V45.9287M135.56 48.4617V51.9606L99.094 52.2748L62.6284 52.589V45.9287M135.56 48.4617L62.6284 45.9287" stroke="#808080" stroke-width="0.6" stroke-linecap="round" stroke-linejoin="round"/>
<path d="M99.094 52.2748L135.56 51.9606V48.4617L62.6284 45.9287V52.589L99.094 52.2748Z" fill="#E6E6E6" stroke="#808080" stroke-width="0.6" stroke-linecap="round" stroke-linejoin="round"/>
<path d="M62.6284 0.537598L99.094 11.945L135.56 23.3524V25.3835L99.094 14.4073L62.6284 3.43113V0.537598Z" fill="#D2D2D2"/>
<path d="M99.094 11.945L62.6284 0.537598V3.43113L99.094 14.4073M99.094 11.945L135.56 23.3524V25.3835L99.094 14.4073M99.094 11.945V14.4073" stroke="#808080" stroke-width="0.6" stroke-linecap="round" stroke-linejoin="round"/>
<path d="M62.6288 0.62793L24.4546 3.58442V6.52713V51.8011L62.6288 52.5904V3.43128V0.62793Z" fill="#D2D2D2"/>
<path d="M62.6288 3.43128V52.5904L24.4546 51.8011V6.52713M62.6288 3.43128V0.62793L24.4546 3.58442V6.52713M62.6288 3.43128L24.4546 6.52713" stroke="#808080" stroke-width="0.6" stroke-linecap="round" stroke-linejoin="round"/>
<path d="M45.2206 53.6294C42.1955 53.6294 39.7432 57.3106 39.7432 61.8515C39.7432 66.3872 42.1898 70.0651 45.21 70.0737H48.508C51.5331 70.0737 53.9854 66.3925 53.9854 61.8515C53.9854 57.3106 51.5331 53.6294 48.508 53.6294H45.2206Z" fill="#E6E6E6"/>
<path d="M45.2206 70.0737C45.217 70.0737 45.2135 70.0737 45.21 70.0737M45.21 70.0737C42.1898 70.0651 39.7432 66.3872 39.7432 61.8515C39.7432 57.3106 42.1955 53.6294 45.2206 53.6294H48.508C51.5331 53.6294 53.9854 57.3106 53.9854 61.8515C53.9854 66.3925 51.5331 70.0737 48.508 70.0737H45.21Z" stroke="#808080" stroke-width="0.6" stroke-linecap="round" stroke-linejoin="round"/>
<path d="M74.7201 52.6397C72.2279 52.6397 70.2075 55.6724 70.2075 59.4135C70.2075 63.1503 72.2232 66.1803 74.7114 66.1874H79.6356C82.1279 66.1874 84.1482 63.1546 84.1482 59.4135C84.1482 55.6724 82.1279 52.6396 79.6356 52.6396L74.7201 52.6397Z" fill="#E6E6E6"/>
<path d="M74.7201 66.1874C74.7172 66.1874 74.7143 66.1874 74.7114 66.1874M74.7114 66.1874C72.2232 66.1803 70.2075 63.1503 70.2075 59.4135C70.2075 55.6724 72.2279 52.6397 74.7201 52.6397L79.6356 52.6396C82.1279 52.6396 84.1482 55.6724 84.1482 59.4135C84.1482 63.1546 82.1279 66.1874 79.6356 66.1874H74.7114Z" stroke="#808080" stroke-width="0.6" stroke-linecap="round" stroke-linejoin="round"/>
<path d="M15.9743 53.0737C13.1947 53.0737 10.9414 56.4562 10.9414 60.6287C10.9414 64.7963 13.1895 68.1758 15.9646 68.1836H18.995C21.7746 68.1836 24.028 64.8012 24.028 60.6287C24.028 56.4562 21.7746 53.0737 18.995 53.0737H15.9743Z" fill="#E6E6E6"/>
<path d="M15.9743 68.1836C15.9711 68.1836 15.9679 68.1836 15.9646 68.1836M15.9646 68.1836C13.1895 68.1758 10.9414 64.7963 10.9414 60.6287C10.9414 56.4562 13.1947 53.0737 15.9743 53.0737H18.995C21.7746 53.0737 24.028 56.4562 24.028 60.6287C24.028 64.8012 21.7746 68.1836 18.995 68.1836H15.9646Z" stroke="#808080" stroke-width="0.6" stroke-linecap="round" stroke-linejoin="round"/>
<path d="M48.5078 67.6011C50.6234 67.6011 52.3383 65.0268 52.3383 61.8511C52.3383 58.6754 50.6234 56.1011 48.5078 56.1011C46.3922 56.1011 44.6772 58.6754 44.6772 61.8511C44.6772 65.0268 46.3922 67.6011 48.5078 67.6011Z" fill="#E6E6E6" stroke="#808080" stroke-width="0.6" stroke-linecap="round" stroke-linejoin="round"/>
<path d="M80.5606 64.7134C82.3035 64.7134 83.7164 62.3406 83.7164 59.4136C83.7164 56.4866 82.3035 54.1138 80.5606 54.1138C78.8177 54.1138 77.4048 56.4866 77.4048 59.4136C77.4048 62.3406 78.8177 64.7134 80.5606 64.7134Z" fill="#E6E6E6" stroke="#808080" stroke-width="0.6" stroke-linecap="round" stroke-linejoin="round"/>
<path d="M122.471 52.6397C121.214 52.6397 120.196 54.1687 120.196 56.0548C120.196 57.9387 121.212 59.4664 122.467 59.47H124.949C126.206 59.47 127.224 57.9409 127.224 56.0548C127.224 54.1687 126.206 52.6396 124.949 52.6396L122.471 52.6397Z" fill="#E6E6E6"/>
<path d="M122.471 59.47C122.469 59.47 122.468 59.47 122.467 59.47M122.467 59.47C121.212 59.4664 120.196 57.9387 120.196 56.0548C120.196 54.1687 121.214 52.6397 122.471 52.6397L124.949 52.6396C126.206 52.6396 127.224 54.1687 127.224 56.0548C127.224 57.9409 126.206 59.47 124.949 59.47H122.467Z" stroke="#808080" stroke-width="0.6" stroke-linecap="round" stroke-linejoin="round"/>
<path d="M125.415 58.7268C126.294 58.7268 127.006 57.5305 127.006 56.0548C127.006 54.5791 126.294 53.3828 125.415 53.3828C124.536 53.3828 123.824 54.5791 123.824 56.0548C123.824 57.5305 124.536 58.7268 125.415 58.7268Z" fill="#E6E6E6" stroke="#808080" stroke-width="0.6" stroke-linecap="round" stroke-linejoin="round"/>
<path d="M117.322 52.6397C115.915 52.6397 114.774 54.3521 114.774 56.4646C114.774 58.5746 115.912 60.2855 117.317 60.2895H120.098C121.505 60.2895 122.646 58.577 122.646 56.4646C122.646 54.3521 121.505 52.6396 120.098 52.6396L117.322 52.6397Z" fill="#E6E6E6"/>
<path d="M117.322 60.2895C117.32 60.2895 117.319 60.2895 117.317 60.2895M117.317 60.2895C115.912 60.2855 114.774 58.5746 114.774 56.4646C114.774 54.3521 115.915 52.6397 117.322 52.6397L120.098 52.6396C121.505 52.6396 122.646 54.3521 122.646 56.4646C122.646 58.577 121.505 60.2895 120.098 60.2895H117.317Z" stroke="#808080" stroke-width="0.6" stroke-linecap="round" stroke-linejoin="round"/>
<path d="M120.619 59.4569C121.603 59.4569 122.401 58.1171 122.401 56.4643C122.401 54.8115 121.603 53.4717 120.619 53.4717C119.635 53.4717 118.837 54.8115 118.837 56.4643C118.837 58.1171 119.635 59.4569 120.619 59.4569Z" fill="#E6E6E6" stroke="#808080" stroke-width="0.6" stroke-linecap="round" stroke-linejoin="round"/>
<path d="M111.087 52.6397C109.508 52.6397 108.228 54.5612 108.228 56.9316C108.228 59.2991 109.505 61.219 111.081 61.2234H114.201C115.78 61.2234 117.06 59.3019 117.06 56.9315C117.06 54.5612 115.78 52.6396 114.201 52.6396L111.087 52.6397Z" fill="#E6E6E6"/>
<path d="M111.087 61.2235C111.085 61.2235 111.083 61.2235 111.081 61.2234M111.081 61.2234C109.505 61.219 108.228 59.2991 108.228 56.9316C108.228 54.5612 109.508 52.6397 111.087 52.6397L114.201 52.6396C115.78 52.6396 117.06 54.5612 117.06 56.9315C117.06 59.3019 115.78 61.2234 114.201 61.2234H111.081Z" stroke="#808080" stroke-width="0.6" stroke-linecap="round" stroke-linejoin="round"/>
<path d="M114.787 60.2896C115.891 60.2896 116.787 58.7862 116.787 56.9317C116.787 55.0772 115.891 53.5738 114.787 53.5738C113.683 53.5738 112.787 55.0772 112.787 56.9317C112.787 58.7862 113.683 60.2896 114.787 60.2896Z" fill="#E6E6E6" stroke="#808080" stroke-width="0.6" stroke-linecap="round" stroke-linejoin="round"/>
<path d="M48.7536 64.2894C49.515 64.2894 50.1322 63.1979 50.1322 61.8515C50.1322 60.5051 49.515 59.4136 48.7536 59.4136C47.9922 59.4136 47.375 60.5051 47.375 61.8515C47.375 63.1979 47.9922 64.2894 48.7536 64.2894Z" fill="#E6E6E6" stroke="#808080" stroke-width="0.6" stroke-linecap="round" stroke-linejoin="round"/>
<path d="M106.198 52.894H101.939V55.3615V56.4464V57.5312L106.198 57.3698V56.2486V55.2589V52.894Z" fill="#ACACAC"/>
<path d="M93.8179 55.5572V56.8305L101.939 56.4464V55.3615L93.8179 55.5572Z" fill="#ACACAC"/>
<path d="M112.031 55.9744V55.1183L106.198 55.2589V56.2486L112.031 55.9744Z" fill="#ACACAC"/>
<path d="M101.939 55.3615V52.894H106.198V55.2589M101.939 55.3615V56.4464M101.939 55.3615L93.8179 55.5572V56.8305L101.939 56.4464M106.198 55.2589V56.2486M106.198 55.2589L112.031 55.1183V55.9744L106.198 56.2486M101.939 56.4464V57.5312L106.198 57.3698V56.2486" stroke="#808080" stroke-width="0.6" stroke-linecap="round" stroke-linejoin="round"/>
<path d="M74.404 63.6977C76.6916 63.6977 76.3713 54.0808 74.404 54.0808L57.2422 53.8364V64.6814L74.404 63.6977Z" fill="#ACACAC" stroke="#808080" stroke-width="0.6" stroke-linecap="round" stroke-linejoin="round"/>
<path d="M71.4111 54.0806C73.3784 54.0806 73.6987 63.6975 71.4111 63.6975" stroke="#808080" stroke-width="0.6" stroke-linecap="round" stroke-linejoin="round"/>
<path d="M67.5063 54.0806C69.4736 54.0806 69.7939 63.6975 67.5063 63.6975" stroke="#808080" stroke-width="0.6" stroke-linecap="round" stroke-linejoin="round"/>
<path d="M57.2422 55.0957H66.5469V64.1719L57.2422 64.6815V55.0957Z" fill="#ACACAC" stroke="#808080" stroke-width="0.6" stroke-linecap="round" stroke-linejoin="round"/>
<path d="M31.9382 9.81369C21.1844 11.8325 15.2022 12.7741 4.5859 14.2407L2.12771 32.8438L1.22854 49.2606L1.58821 58.6931C0.329336 59.5211 0.1135 63.6973 1.58821 64.0933C14.3768 65.791 22.7757 66.2555 39.0696 66.5576C41.0036 66.5576 42.7617 65.8097 42.498 62.5101C42.498 62.5101 42.498 49.8176 48.4316 49.5317C52.4491 49.3381 53.5302 52.5673 53.5302 52.5673H61.6175V19.9673C61.6175 19.9673 60.9643 4.04432 59.0683 2.85335C55.3712 0.531153 47.9042 2.32543 47.9042 2.32543L31.9382 9.81369Z" fill="#ACACAC"/>
<path d="M31.9382 9.81369C21.1844 11.8325 15.2022 12.7741 4.5859 14.2407L2.12771 32.8438L1.22854 49.2606L1.58821 58.693C0.329336 59.5211 0.1135 63.6973 1.58821 64.0933C14.3768 65.791 22.7757 66.2555 39.0696 66.5576C41.0036 66.5576 42.7617 65.8097 42.498 62.5101C42.498 62.5101 42.498 49.8176 48.4316 49.5317C52.4491 49.3381 53.5302 52.5673 53.5302 52.5673H61.6175V19.9673C61.6175 19.9673 60.9643 4.04432 59.0683 2.85335C55.3712 0.531153 47.9042 2.32543 47.9042 2.32543L31.9382 9.81369ZM31.9382 9.81369C40.411 9.65812 46.4967 11.4117 57.289 14.4523" stroke="#808080" stroke-width="0.6" stroke-linecap="round" stroke-linejoin="round"/>
<path d="M27.8709 33.9917C17.3934 35.144 11.9937 35.4536 3.14648 35.4582C4.05775 53.7637 3.0005 58.219 13.9113 59.1539C26.9726 60.273 23.5184 52.5146 27.8709 33.9917Z" fill="#E6E6E6" stroke="#808080" stroke-width="0.6" stroke-linecap="round" stroke-linejoin="round"/>
<path d="M33.7109 28.2632C29.6996 31.9697 3.83999 33.6985 2.30078 31.5345L4.14201 17.6005L34.6277 13.7344L33.7109 28.2632Z" fill="#D2D2D2"/>
<path d="M36.3848 15.0343L35.9264 28.5308L46.6599 28.9896L46.4307 17.0224L36.3848 15.0343Z" fill="#D2D2D2"/>
<path d="M33.7109 28.2632C29.6996 31.9697 3.83999 33.6985 2.30078 31.5345L4.14201 17.6005L34.6277 13.7344L33.7109 28.2632Z" stroke="#808080" stroke-width="0.6" stroke-linecap="round" stroke-linejoin="round"/>
<path d="M36.3848 15.0343L35.9264 28.5308L46.6599 28.9896L46.4307 17.0224L36.3848 15.0343Z" stroke="#808080" stroke-width="0.6" stroke-linecap="round" stroke-linejoin="round"/>
<path d="M31.9382 9.81394C21.1845 11.8327 15.2023 12.7743 4.58594 14.241C7.24007 3.26537 10.8916 5.12215 21.9858 2.48032C32.2498 0.0361878 39.5506 -0.462661 50.6257 3.10176C56.7453 4.54057 56.9788 8.79649 57.2821 14.3247L57.2891 14.4526L56.8066 14.3166C46.3136 11.3598 40.2839 9.66071 31.9382 9.81394Z" fill="#ACACAC" stroke="#808080" stroke-width="0.6" stroke-linecap="round" stroke-linejoin="round"/>
</g>
<defs>
<clipPath id="clip0_5_2">
<rect width="136" height="71" fill="white"/>
</clipPath>
</defs>
</svg>
