<svg width="100" height="100" viewBox="0 0 100 100" fill="none" xmlns="http://www.w3.org/2000/svg">
<rect width="100" height="100" rx="50" fill="black"/>
<path d="M11.5039 41.7246H19.625C20.4199 41.7246 21.1432 41.918 21.7949 42.3047C22.4538 42.6914 22.9766 43.2106 23.3633 43.8623C23.75 44.5068 23.9434 45.2266 23.9434 46.0215V52.7461C23.9434 53.5267 23.75 54.2393 23.3633 54.8838C22.9766 55.5283 22.4538 56.0439 21.7949 56.4307C21.1432 56.8102 20.4199 57 19.625 57H11.5039V41.7246ZM19.625 54.7334C20.1979 54.7334 20.6849 54.5365 21.0859 54.1426C21.487 53.7487 21.6875 53.2725 21.6875 52.7139V46.0215C21.6875 45.4557 21.487 44.9759 21.0859 44.582C20.6849 44.181 20.1979 43.9805 19.625 43.9805H13.7705V54.7334H19.625ZM26.7363 41.7246H34.8145C35.5091 41.7246 36.1393 41.8965 36.7051 42.2402C37.278 42.5768 37.7327 43.028 38.0693 43.5938C38.4131 44.1595 38.585 44.7897 38.585 45.4844V47.0098C38.585 47.7044 38.4167 48.3311 38.0801 48.8896C37.7507 49.4482 37.2995 49.8923 36.7266 50.2217C36.1536 50.5511 35.5127 50.7158 34.8037 50.7158L39.3584 57H36.5977L32.043 50.7158H30.292V48.46H34.8145C35.237 48.46 35.5951 48.3167 35.8887 48.0303C36.1823 47.7367 36.3291 47.3857 36.3291 46.9775V45.4844C36.3291 45.069 36.1823 44.7145 35.8887 44.4209C35.5951 44.1273 35.237 43.9805 34.8145 43.9805H29.0029V57H26.7363V41.7246ZM41.5176 41.7246H43.7842V57H41.5176V41.7246ZM48.1455 41.7246L52.6143 54.25L57.0723 41.7246H59.4893L54.0215 57H51.1963L45.7285 41.7246H48.1455ZM61.4336 41.7246H73.2822V43.9805H63.7002V54.7334H73.2822V57H61.4336V41.7246ZM64.9893 47.9229H73.2822V50.1787H64.9893V47.9229ZM76.0859 41.7246H84.1641C84.8587 41.7246 85.4889 41.8965 86.0547 42.2402C86.6276 42.5768 87.0824 43.028 87.4189 43.5938C87.7627 44.1595 87.9346 44.7897 87.9346 45.4844V47.0098C87.9346 47.7044 87.7663 48.3311 87.4297 48.8896C87.1003 49.4482 86.6491 49.8923 86.0762 50.2217C85.5033 50.5511 84.8623 50.7158 84.1533 50.7158L88.708 57H85.9473L81.3926 50.7158H79.6416V48.46H84.1641C84.5866 48.46 84.9447 48.3167 85.2383 48.0303C85.5319 47.7367 85.6787 47.3857 85.6787 46.9775V45.4844C85.6787 45.069 85.5319 44.7145 85.2383 44.4209C84.9447 44.1273 84.5866 43.9805 84.1641 43.9805H78.3525V57H76.0859V41.7246Z" fill="white"/>
</svg>
