<svg width="134" height="70" viewBox="0 0 134 70" fill="none" xmlns="http://www.w3.org/2000/svg">
<g clip-path="url(#clip0_6_103)">
<path d="M40.8361 65.9951C40.4273 66.1002 39.985 66.1412 39.5332 66.1412L40.8361 65.9951C42.1692 65.6522 43.1472 64.6271 42.9463 62.1155C42.9463 62.1155 42.9463 49.4914 48.8535 49.2071C52.8532 49.0145 53.9294 52.2263 53.9294 52.2263H61.9808L133 51.5892V54.2L111.927 56.0649V58.023L40.8361 65.9951Z" fill="#808080"/>
<path d="M39.5332 66.1412C41.4585 66.1412 43.2088 65.3973 42.9463 62.1155C42.9463 62.1155 42.9463 49.4914 48.8535 49.2071C52.8532 49.0145 53.9294 52.2263 53.9294 52.2263H61.9808L133 51.5892V54.2L111.927 56.0649V58.023L39.5332 66.1412Z" stroke="#808080" stroke-width="0.6" stroke-linecap="round" stroke-linejoin="round"/>
<path d="M45.6566 53.2827C42.645 53.2827 40.2036 56.9441 40.2036 61.4605C40.2036 65.9717 42.6393 69.6298 45.6461 69.6383H48.9295C51.9411 69.6383 54.3825 65.977 54.3825 61.4605C54.3825 56.944 51.9411 53.2827 48.9295 53.2827H45.6566Z" fill="#E6E6E6"/>
<path d="M45.6566 69.6383C45.6531 69.6383 45.6496 69.6383 45.6461 69.6383M45.6461 69.6383C42.6393 69.6298 40.2036 65.9717 40.2036 61.4605C40.2036 56.9441 42.645 53.2827 45.6566 53.2827H48.9295C51.9411 53.2827 54.3825 56.944 54.3825 61.4605C54.3825 65.977 51.9411 69.6383 48.9295 69.6383H45.6461Z" stroke="#808080" stroke-width="0.6" stroke-linecap="round" stroke-linejoin="round"/>
<path d="M75.0248 52.2984C72.5436 52.2984 70.5322 55.3148 70.5322 59.0357C70.5322 62.7523 72.5389 65.766 75.0161 65.773H79.9184C82.3996 65.773 84.4109 62.7566 84.4109 59.0357C84.4109 55.3148 82.3996 52.2983 79.9184 52.2983L75.0248 52.2984Z" fill="#E6E6E6"/>
<path d="M75.0248 65.773C75.0219 65.773 75.019 65.773 75.0161 65.773M75.0161 65.773C72.5389 65.766 70.5322 62.7523 70.5322 59.0357C70.5322 55.3148 72.5436 52.2984 75.0248 52.2984L79.9184 52.2983C82.3996 52.2983 84.4109 55.3148 84.4109 59.0357C84.4109 62.7566 82.3996 65.773 79.9184 65.773H75.0161Z" stroke="#808080" stroke-width="0.6" stroke-linecap="round" stroke-linejoin="round"/>
<path d="M16.5408 52.73C13.7736 52.73 11.5303 56.0942 11.5303 60.2442C11.5303 64.3893 13.7684 67.7506 16.5312 67.7584H19.5481C22.3153 67.7584 24.5586 64.3942 24.5586 60.2442C24.5586 56.0942 22.3153 52.73 19.5481 52.73H16.5408Z" fill="#E6E6E6"/>
<path d="M16.5408 67.7584C16.5376 67.7584 16.5344 67.7584 16.5312 67.7584M16.5312 67.7584C13.7684 67.7506 11.5303 64.3893 11.5303 60.2442C11.5303 56.0942 13.7736 52.73 16.5408 52.73H19.5481C22.3153 52.73 24.5586 56.0942 24.5586 60.2442C24.5586 64.3942 22.3153 67.7584 19.5481 67.7584H16.5312Z" stroke="#808080" stroke-width="0.6" stroke-linecap="round" stroke-linejoin="round"/>
<path d="M48.9292 67.1792C51.0353 67.1792 52.7427 64.6187 52.7427 61.4602C52.7427 58.3017 51.0353 55.7412 48.9292 55.7412C46.8231 55.7412 45.1157 58.3017 45.1157 61.4602C45.1157 64.6187 46.8231 67.1792 48.9292 67.1792Z" fill="#E6E6E6" stroke="#808080" stroke-width="0.6" stroke-linecap="round" stroke-linejoin="round"/>
<path d="M80.8395 64.3066C82.5747 64.3066 83.9813 61.9466 83.9813 59.0354C83.9813 56.1242 82.5747 53.7642 80.8395 53.7642C79.1043 53.7642 77.6977 56.1242 77.6977 59.0354C77.6977 61.9466 79.1043 64.3066 80.8395 64.3066Z" fill="#E6E6E6" stroke="#808080" stroke-width="0.6" stroke-linecap="round" stroke-linejoin="round"/>
<path d="M122.563 52.2983C121.312 52.2983 120.298 53.8191 120.298 55.6951C120.298 57.5689 121.31 59.0883 122.559 59.0918H125.031C126.281 59.0918 127.295 57.571 127.295 55.6951C127.295 53.8191 126.281 52.2983 125.031 52.2983H122.563Z" fill="#E6E6E6"/>
<path d="M122.563 59.0918C122.562 59.0918 122.56 59.0918 122.559 59.0918M122.559 59.0918C121.31 59.0883 120.298 57.5689 120.298 55.6951C120.298 53.8191 121.312 52.2983 122.563 52.2983H125.031C126.281 52.2983 127.295 53.8191 127.295 55.6951C127.295 57.571 126.281 59.0918 125.031 59.0918H122.559Z" stroke="#808080" stroke-width="0.6" stroke-linecap="round" stroke-linejoin="round"/>
<path d="M125.495 58.3523C126.37 58.3523 127.079 57.1624 127.079 55.6947C127.079 54.227 126.37 53.0371 125.495 53.0371C124.62 53.0371 123.911 54.227 123.911 55.6947C123.911 57.1624 124.62 58.3523 125.495 58.3523Z" fill="#E6E6E6" stroke="#808080" stroke-width="0.6" stroke-linecap="round" stroke-linejoin="round"/>
<path d="M117.437 52.2983C116.036 52.2983 114.9 54.0016 114.9 56.1027C114.9 58.2013 116.033 59.903 117.432 59.907H120.2C121.601 59.907 122.737 58.2037 122.737 56.1026C122.737 54.0016 121.601 52.2983 120.2 52.2983H117.437Z" fill="#E6E6E6"/>
<path d="M117.437 59.907C117.436 59.907 117.434 59.907 117.432 59.907M117.432 59.907C116.033 59.903 114.9 58.2013 114.9 56.1027C114.9 54.0016 116.036 52.2983 117.437 52.2983H120.2C121.601 52.2983 122.737 54.0016 122.737 56.1026C122.737 58.2037 121.601 59.907 120.2 59.907H117.432Z" stroke="#808080" stroke-width="0.6" stroke-linecap="round" stroke-linejoin="round"/>
<path d="M120.72 59.0788C121.7 59.0788 122.494 57.7462 122.494 56.1024C122.494 54.4585 121.7 53.1259 120.72 53.1259C119.74 53.1259 118.946 54.4585 118.946 56.1024C118.946 57.7462 119.74 59.0788 120.72 59.0788Z" fill="#E6E6E6" stroke="#808080" stroke-width="0.6" stroke-linecap="round" stroke-linejoin="round"/>
<path d="M111.23 52.2983C109.658 52.2983 108.383 54.2095 108.383 56.5671C108.383 58.9219 109.655 60.8314 111.224 60.8359H114.33C115.902 60.8359 117.177 58.9247 117.177 56.5671C117.177 54.2095 115.902 52.2983 114.33 52.2983H111.23Z" fill="#E6E6E6"/>
<path d="M111.23 60.8359C111.228 60.8359 111.226 60.8359 111.224 60.8359M111.224 60.8359C109.655 60.8314 108.383 58.9219 108.383 56.5671C108.383 54.2095 109.658 52.2983 111.23 52.2983H114.33C115.902 52.2983 117.177 54.2095 117.177 56.5671C117.177 58.9247 115.902 60.8359 114.33 60.8359H111.224Z" stroke="#808080" stroke-width="0.6" stroke-linecap="round" stroke-linejoin="round"/>
<path d="M114.914 59.9067C116.013 59.9067 116.905 58.4114 116.905 56.5669C116.905 54.7224 116.013 53.2271 114.914 53.2271C113.815 53.2271 112.923 54.7224 112.923 56.5669C112.923 58.4114 113.815 59.9067 114.914 59.9067Z" fill="#E6E6E6" stroke="#808080" stroke-width="0.6" stroke-linecap="round" stroke-linejoin="round"/>
<path d="M49.1742 63.8852C49.9322 63.8852 50.5466 62.7996 50.5466 61.4604C50.5466 60.1212 49.9322 59.0356 49.1742 59.0356C48.4162 59.0356 47.8018 60.1212 47.8018 61.4604C47.8018 62.7996 48.4162 63.8852 49.1742 63.8852Z" fill="#E6E6E6" stroke="#808080" stroke-width="0.6" stroke-linecap="round" stroke-linejoin="round"/>
<path d="M106.362 52.5513H102.122V55.0054V56.0845V57.1635L106.362 57.0029V55.8877V54.9034V52.5513Z" fill="#ACACAC"/>
<path d="M94.0376 55.2001V56.4665L102.122 56.0845V55.0054L94.0376 55.2001Z" fill="#ACACAC"/>
<path d="M112.17 55.615V54.7636L106.362 54.9034V55.8877L112.17 55.615Z" fill="#ACACAC"/>
<path d="M102.122 55.0054V52.5513H106.362V54.9034M102.122 55.0054V56.0845M102.122 55.0054L94.0376 55.2001V56.4665L102.122 56.0845M106.362 54.9034V55.8877M106.362 54.9034L112.17 54.7636V55.615L106.362 55.8877M102.122 56.0845V57.1635L106.362 57.0029V55.8877" stroke="#808080" stroke-width="0.6" stroke-linecap="round" stroke-linejoin="round"/>
<path d="M74.7105 63.2969C76.9878 63.2969 76.669 53.7319 74.7105 53.7319L57.625 53.4888V64.2753L74.7105 63.2969Z" fill="#ACACAC" stroke="#808080" stroke-width="0.6" stroke-linecap="round" stroke-linejoin="round"/>
<path d="M71.7305 53.731C73.689 53.731 74.0078 63.296 71.7305 63.296" stroke="#808080" stroke-width="0.6" stroke-linecap="round" stroke-linejoin="round"/>
<path d="M67.8433 53.731C69.8018 53.731 70.1206 63.296 67.8433 63.296" stroke="#808080" stroke-width="0.6" stroke-linecap="round" stroke-linejoin="round"/>
<path d="M57.625 54.7412H66.8883V63.7685L57.625 64.2753V54.7412Z" fill="#ACACAC" stroke="#808080" stroke-width="0.6" stroke-linecap="round" stroke-linejoin="round"/>
<path d="M32.4333 9.70334C21.7274 11.7112 15.7719 12.6477 5.20276 14.1065L2.7555 32.6093L1.86033 48.9375L2.21841 58.3191C0.965134 59.1427 0.750259 63.2964 2.21841 63.6903C14.9501 65.3788 23.3116 65.8408 39.5331 66.1413C41.4584 66.1413 43.2087 65.3974 42.9461 62.1156C42.9461 62.1156 42.9461 49.4915 48.8534 49.2072C52.853 49.0147 53.9293 52.2264 53.9293 52.2264H61.9806V19.8022C61.9806 19.8022 61.3303 3.96508 59.4427 2.78053C55.7621 0.470855 48.3283 2.25546 48.3283 2.25546L32.4333 9.70334Z" fill="#ACACAC"/>
<path d="M32.4333 9.70334C21.7274 11.7112 15.7719 12.6477 5.20276 14.1065L2.7555 32.6093L1.86033 48.9375L2.21841 58.3191C0.965134 59.1427 0.750259 63.2964 2.21841 63.6903C14.9501 65.3788 23.3116 65.8408 39.5331 66.1413C41.4584 66.1413 43.2087 65.3974 42.9461 62.1156C42.9461 62.1156 42.9461 49.4915 48.8534 49.2072C52.853 49.0147 53.9293 52.2264 53.9293 52.2264H61.9806V19.8022C61.9806 19.8022 61.3303 3.96508 59.4427 2.78053C55.7621 0.470855 48.3283 2.25546 48.3283 2.25546L32.4333 9.70334ZM32.4333 9.70334C40.8684 9.54861 46.927 11.2928 57.6714 14.3169" stroke="#808080" stroke-width="0.6" stroke-linecap="round" stroke-linejoin="round"/>
<path d="M28.384 33.751C17.953 34.8971 12.5774 35.205 3.76953 35.2096C4.67674 53.4164 3.62419 57.8477 14.4865 58.7775C27.4896 59.8906 24.0508 52.174 28.384 33.751Z" fill="#E6E6E6" stroke="#808080" stroke-width="0.6" stroke-linecap="round" stroke-linejoin="round"/>
<path d="M34.1981 28.053C30.2046 31.7396 4.46009 33.459 2.92773 31.3067L4.76077 17.4478L35.1108 13.6025L34.1981 28.053Z" fill="#D2D2D2"/>
<path d="M36.8601 14.8954L36.4037 28.3191L47.0895 28.7755L46.8613 16.8728L36.8601 14.8954Z" fill="#D2D2D2"/>
<path d="M34.1981 28.053C30.2046 31.7396 4.46009 33.459 2.92773 31.3067L4.76077 17.4478L35.1108 13.6025L34.1981 28.053Z" stroke="#808080" stroke-width="0.6" stroke-linecap="round" stroke-linejoin="round"/>
<path d="M36.8601 14.8954L36.4037 28.3191L47.0895 28.7755L46.8613 16.8728L36.8601 14.8954Z" stroke="#808080" stroke-width="0.6" stroke-linecap="round" stroke-linejoin="round"/>
<path d="M32.4332 9.70338C21.7273 11.7113 15.7717 12.6478 5.20264 14.1066C7.84496 3.19011 11.4803 5.03688 22.5251 2.4093C32.7435 -0.0216551 40.0118 -0.517814 51.0376 3.02738C57.13 4.45844 57.3624 8.69142 57.6643 14.1899L57.6713 14.317L57.191 14.1818C46.7446 11.2409 40.7418 9.55097 32.4332 9.70338Z" fill="#ACACAC" stroke="#808080" stroke-width="0.6" stroke-linecap="round" stroke-linejoin="round"/>
</g>
<defs>
<clipPath id="clip0_6_103">
<rect width="134" height="70" fill="white"/>
</clipPath>
</defs>
</svg>
